<svg xmlns="http://www.w3.org/2000/svg" viewBox="0 0 40 40">
  <g id="icon" transform="translate(-32 -137)">
    <rect width="40" height="40" transform="translate(32 137)" fill="none"/>
    <g transform="translate(-241.913 98.557)">
      <g transform="translate(275.913 43.443)">
        <path d="M309.75,56.354a2.571,2.571,0,0,0-.445-.034h-25.4l.553-.257a5.141,5.141,0,0,0,1.455-1.03l7.122-7.122a2.669,2.669,0,0,0,.375-3.413,2.577,2.577,0,0,0-3.6-.557,2.347,2.347,0,0,0-.264.222L276.669,57.04a2.574,2.574,0,0,0,0,3.643l0,0,12.878,12.88a2.576,2.576,0,0,0,3.643-.006,3.322,3.322,0,0,0,.222-.251,2.668,2.668,0,0,0-.375-3.413l-7.108-7.136a5.2,5.2,0,0,0-1.289-.94l-.772-.347h25.3a2.666,2.666,0,0,0,2.717-2.164A2.575,2.575,0,0,0,309.75,56.354Z" transform="translate(-275.913 -43.443)" />
      </g>
    </g>
  </g>
</svg>
