<svg xmlns="http://www.w3.org/2000/svg" viewBox="0 0 40 41">
  <g id="icon" transform="translate(-32 -136.5)">
    <path d="M12.925,35.719a1.413,1.413,0,0,1,1.322-1.862h8.994a1.416,1.416,0,0,1,1.324,1.862,6.1,6.1,0,0,1-11.64,0ZM5.8,30.848A5.625,5.625,0,0,1,.023,26.09a5.135,5.135,0,0,1,2.733-5A4.2,4.2,0,0,0,4.9,17.381V13.126C4.9,5.877,11.1,0,18.744,0S32.587,5.877,32.587,13.126v4.256a4.205,4.205,0,0,0,2.143,3.712,5.13,5.13,0,0,1,2.733,5,5.623,5.623,0,0,1-5.78,4.758Z" transform="translate(33.257 137)" stroke="rgba(0,0,0,0)" stroke-miterlimit="10" stroke-width="1"/>
    <rect width="40" height="40" transform="translate(32 137)" fill="none"/>
  </g>
</svg>
