<svg xmlns="http://www.w3.org/2000/svg" viewBox="0 0 32 32">
  <path id="Button_NaviOpen" d="M199.1,140.232h-32v-32A32,32,0,0,1,199.1,140.232Zm-23.775-11.977h8.449l-.258.116a1.751,1.751,0,0,0-.431.314l-2.374,2.383a.891.891,0,0,0-.125,1.14,1.116,1.116,0,0,0,.074.084h0a.86.86,0,0,0,1.216,0l4.3-4.3h0a.859.859,0,0,0,0-1.215l-4.3-4.3a.783.783,0,0,0-.088-.074.861.861,0,0,0-1.2.186.891.891,0,0,0,.125,1.14l2.379,2.379a1.717,1.717,0,0,0,.486.344l.185.086h-8.483a.854.854,0,0,0-.149.011h0a.86.86,0,0,0-.71.987A.891.891,0,0,0,175.323,128.255Z" transform="translate(-167.098 -108.232)" fill="#05abef"/>
</svg>
