<svg xmlns="http://www.w3.org/2000/svg" viewBox="0 0 32 32">
  <path id="Button_NaviClose" d="M253.866,140.232h-32v-32a32.389,32.389,0,0,1,10.085,1.622A31.93,31.93,0,0,1,253.866,140.232Zm-24.442-12.243h0l4.3,4.3a.86.86,0,0,0,1.216,0h0a1.113,1.113,0,0,0,.074-.084.891.891,0,0,0-.125-1.14s-1.673-1.709-2.374-2.383-.272-.232-.431-.314l-.258-.116h8.449a.891.891,0,0,0,.907-.723.86.86,0,0,0-.71-.987h0a.856.856,0,0,0-.149-.011H231.84l.185-.086a1.717,1.717,0,0,0,.486-.344l2.379-2.379a.891.891,0,0,0,.125-1.14.861.861,0,0,0-1.2-.186.783.783,0,0,0-.088.074l-4.3,4.3A.859.859,0,0,0,229.424,127.989Z" transform="translate(-221.866 -108.232)" fill="#05abef"/>
</svg>
