<svg xmlns="http://www.w3.org/2000/svg" viewBox="0 0 40 40">
  <g id="icon" transform="translate(283 -90)">
    <rect width="40" height="40" transform="translate(-283 90)" fill="none"/>
    <g transform="translate(-494.395 10.771)">
      <path d="M214.867,91.6h33.055a2.251,2.251,0,0,0,2.251-2.251,5.208,5.208,0,0,0-5.208-5.208H244.1v-1.58a3.333,3.333,0,1,0-6.667,0v1.58H225.357v-1.58a3.333,3.333,0,1,0-6.667,0v1.58h-.866a5.208,5.208,0,0,0-5.208,5.208A2.251,2.251,0,0,0,214.867,91.6Z" transform="translate(0)"/>
      <path d="M247.055,88.19h-31.32a3.119,3.119,0,0,0-3.119,3.119v16.6a5.468,5.468,0,0,0,5.469,5.467h26.621a5.467,5.467,0,0,0,5.467-5.467v-16.6A3.119,3.119,0,0,0,247.055,88.19Zm-22.037,18.457a1.658,1.658,0,0,1-1.658,1.658h-2.505a1.658,1.658,0,0,1-1.658-1.658v-2.4a1.658,1.658,0,0,1,1.658-1.658h2.505a1.658,1.658,0,0,1,1.658,1.658Zm0-9.32a1.658,1.658,0,0,1-1.658,1.658h-2.505a1.658,1.658,0,0,1-1.658-1.658v-2.4a1.658,1.658,0,0,1,1.658-1.658h2.505a1.658,1.658,0,0,1,1.658,1.658Zm9.255,9.32a1.658,1.658,0,0,1-1.658,1.658H230.11a1.658,1.658,0,0,1-1.658-1.658v-2.4a1.658,1.658,0,0,1,1.658-1.658h2.505a1.658,1.658,0,0,1,1.658,1.658Zm0-9.32a1.658,1.658,0,0,1-1.658,1.658H230.11a1.658,1.658,0,0,1-1.658-1.658v-2.4a1.658,1.658,0,0,1,1.658-1.658h2.505a1.658,1.658,0,0,1,1.658,1.658Zm9.253,0a1.658,1.658,0,0,1-1.658,1.658h-2.505a1.658,1.658,0,0,1-1.658-1.658v-2.4a1.658,1.658,0,0,1,1.658-1.658h2.505a1.658,1.658,0,0,1,1.658,1.658Z" transform="translate(0 5.849)"/>
    </g>
  </g>
</svg>
