<svg xmlns="http://www.w3.org/2000/svg" viewBox="0 0 40 40">
  <g id="icon" transform="translate(283 -90)">
    <g transform="translate(-456.392 12.113)">
      <circle cx="6.412" cy="6.412" r="6.412" transform="translate(186.981 94.168)" />
      <path d="M210.234,87.233h-4.763a3.18,3.18,0,0,1-2.944-2.207l-.852-2.4a3.18,3.18,0,0,0-2.944-2.207H188.054a3.179,3.179,0,0,0-2.944,2.207l-.852,2.4a3.18,3.18,0,0,1-2.944,2.207h-4.763a3.325,3.325,0,0,0-3.16,3.467v21.183a3.325,3.325,0,0,0,3.16,3.467h33.682a3.323,3.323,0,0,0,3.158-3.467V90.7A3.323,3.323,0,0,0,210.234,87.233Zm-16.842,22.914a9.567,9.567,0,1,1,9.568-9.566A9.578,9.578,0,0,1,193.392,110.147Zm13.764-14.573a2.239,2.239,0,1,1,2.24-2.24A2.238,2.238,0,0,1,207.156,95.574Z" transform="translate(0 0)" />
    </g>
    <rect width="40" height="40" transform="translate(-283 90)" fill="none"/>
  </g>
</svg>
