<svg xmlns="http://www.w3.org/2000/svg" viewBox="0 0 40 40">
  <g id="icon" transform="translate(-32 -137)">
    <path d="M143.777,64.393,132.234,44.605a6.562,6.562,0,0,0-11.336,0L109.353,64.394a6.561,6.561,0,0,0,5.669,9.868h23.086a6.564,6.564,0,0,0,5.669-9.87Zm-17.209,4.741a2.263,2.263,0,1,1,2.263-2.263A2.263,2.263,0,0,1,126.568,69.134Zm2.263-9.065a2.263,2.263,0,0,1-4.527,0V52.524a2.263,2.263,0,0,1,4.527,0Z" transform="translate(-74.565 99.039)"/>
    <rect transform="translate(32 137)" fill="none"/>
  </g>
</svg>
