<svg xmlns="http://www.w3.org/2000/svg" viewBox="0 0 40 40">
  <g id="icon" transform="translate(-32 -137)">
    <path d="M346.386,105.9a20,20,0,1,0,20,20A20,20,0,0,0,346.386,105.9Zm9.17,26.173a2.119,2.119,0,1,1-3,3l-6.174-6.174-6.174,6.174a2.169,2.169,0,0,1-3,0,2.123,2.123,0,0,1,0-3l6.172-6.172-6.172-6.174a2.119,2.119,0,1,1,3-3l6.174,6.174,6.174-6.174a2.119,2.119,0,1,1,3,3l-6.172,6.174Z" transform="translate(-294.385 31.097)" />
    <rect width="40" height="40" transform="translate(32 137)" fill="none"/>
  </g>
</svg>
