<svg xmlns="http://www.w3.org/2000/svg" viewBox="0 0 40 40">
  <g id="icon" transform="translate(-32 -137)">
    <rect width="40" height="40" transform="translate(32 137)" fill="none"/>
    <g transform="translate(34.995 138.414)">
      <path d="M237.711,54.8h0a5.755,5.755,0,0,0,.758,1.063,10.118,10.118,0,0,0,2.54,1.947,17.214,17.214,0,0,0,2.3,1.068c.2.077.412.143.618.215a26.067,26.067,0,0,0,3.57.967,34.361,34.361,0,0,0,6.605.62,35.422,35.422,0,0,0,5.045-.355,27.532,27.532,0,0,0,5.147-1.237c.2-.07.408-.135.6-.21a17.215,17.215,0,0,0,2.3-1.068,11.545,11.545,0,0,0,1.827-1.257,6.629,6.629,0,0,0,1.472-1.753,4.057,4.057,0,0,0,.575-2.005V48.644a5.05,5.05,0,0,0-2.047-3.758,11.435,11.435,0,0,0-1.827-1.257,17.428,17.428,0,0,0-2.3-1.07,27,27,0,0,0-5.748-1.445,35.18,35.18,0,0,0-5.045-.355,34.361,34.361,0,0,0-6.605.62,25.477,25.477,0,0,0-4.188,1.18,17.427,17.427,0,0,0-2.3,1.07,10.118,10.118,0,0,0-2.54,1.947,4.565,4.565,0,0,0-1.333,3.068v4.147a4.057,4.057,0,0,0,.575,2.005Z" transform="translate(-237.062 -40.759)"/>
      <path d="M254.132,62.114c9.927,0,15.235-3.832,16.349-5.627.475-.767.6-2.907.62-4.315a.575.575,0,0,0-.93-.465c-5.963,4.933-16.039,4.75-16.039,4.75s-10.1.185-16.064-4.77a.58.58,0,0,0-.968.41c-.04,1.475.025,3.85.792,4.69C239.314,58.349,244.206,62.114,254.132,62.114Z" transform="translate(-237.092 -33.57)"/>
      <path d="M270.171,56.883c-5.963,4.935-16.039,4.752-16.039,4.752s-10.1.183-16.064-4.77a.579.579,0,0,0-.968.408c-.04,1.477.025,3.85.792,4.692,1.422,1.56,6.313,5.327,16.24,5.327s15.235-3.832,16.349-5.627c.475-.767.6-2.908.62-4.317A.575.575,0,0,0,270.171,56.883Z" transform="translate(-237.092 -30.119)"/>
    </g>
  </g>
</svg>
