<svg xmlns="http://www.w3.org/2000/svg" viewBox="0 0 40 40">
  <g id="icon" transform="translate(283 -90)">
    <rect width="40" height="40" transform="translate(-283 90)" fill="none"/>
    <g transform="translate(-728.961 8.695)">
      <path d="M452.639,94.9a2.657,2.657,0,0,0-.578,3.715,2.826,2.826,0,0,0,.245.29l8.207,8.206a2.659,2.659,0,0,0,3.764,0l8.208-8.206a2.659,2.659,0,0,0,0-3.762,2.629,2.629,0,0,0-.313-.267,2.721,2.721,0,0,0-3.463.362l-3.63,3.616V83.986a2.708,2.708,0,0,0-2.235-2.775,2.664,2.664,0,0,0-3.05,2.2,2.63,2.63,0,0,0-.034.447v15l-3.6-3.6A2.723,2.723,0,0,0,452.639,94.9Z" transform="translate(3.555 2)"/>
      <path d="M478.942,81.255h-3.085a2.455,2.455,0,0,0,0,4.909h3.085a2.111,2.111,0,0,1,2.109,2.109v25.272a2.113,2.113,0,0,1-2.109,2.111H452.98a2.113,2.113,0,0,1-2.109-2.111V88.273a2.111,2.111,0,0,1,2.109-2.109h2.895a2.455,2.455,0,0,0,0-4.909H452.98a7.026,7.026,0,0,0-7.018,7.018v25.272a7.028,7.028,0,0,0,7.018,7.02h25.963a7.027,7.027,0,0,0,7.018-7.02V88.273A7.025,7.025,0,0,0,478.942,81.255Z" transform="translate(0 0.05)"/>
    </g>
  </g>
</svg>
