<svg xmlns="http://www.w3.org/2000/svg" viewBox="0 0 40 40">
  <g id="icon" transform="translate(283 -90)">
    <rect width="40" height="40" transform="translate(-283 90)" fill="none"/>
    <g transform="translate(-696.52 9.642)">
      <path d="M450.655,104.609a2.806,2.806,0,0,0-2.8,2.8v4.36a2.918,2.918,0,0,1-2.914,2.916H422.044a2.919,2.919,0,0,1-2.916-2.916V88.882a2.919,2.919,0,0,1,2.916-2.916h4.731a2.8,2.8,0,0,0,0-5.608h-4.731a8.533,8.533,0,0,0-8.524,8.524v22.892a8.532,8.532,0,0,0,8.524,8.524h22.892a8.532,8.532,0,0,0,8.522-8.524v-4.36A2.8,2.8,0,0,0,450.655,104.609Z" transform="translate(0)" />
      <path d="M445.038,81.528a2.911,2.911,0,0,0-2.073-.858H430.191a2.927,2.927,0,0,0-2.924,2.931,2.839,2.839,0,0,0,.035.452,2.994,2.994,0,0,0,2.976,2.412l5.638.01L425.7,96.7a2.984,2.984,0,0,0-.422,3.9,2.93,2.93,0,0,0,4.088.662,3.076,3.076,0,0,0,.375-.321l10.322-10.322,0,5.608a2.994,2.994,0,0,0,2.457,3.011,2.927,2.927,0,0,0,3.341-2.442,3.37,3.37,0,0,0,.034-.417V83.6A2.909,2.909,0,0,0,445.038,81.528Z" transform="translate(7.625 0.212)" />
    </g>
  </g>
</svg>
