<svg xmlns="http://www.w3.org/2000/svg" viewBox="0 0 40 40">
  <g id="icon" transform="translate(72 177) rotate(180)">
    <rect width="40" height="40" transform="translate(32 137)" fill="none"/>
    <g transform="translate(72 175.561) rotate(180)">
      <path d="M38.9,6.425l-.954-.412-.273-.051a2.7,2.7,0,0,0-2.807,1.874c-.081.236-.172.465-.26.7l-.159.415a18.436,18.436,0,0,0-7.83-7.116l-.045-.1L23.991.765C23.685.7,23.378.627,23.071.553,22.547.425,22.02.3,21.484.221A18.367,18.367,0,0,0,6.348,4.594a18.048,18.048,0,0,0-4.585,6.064L.829,13l-.1.476a18,18,0,0,0,.509,11.649A18.02,18.02,0,0,0,11.97,35.861q.711.268,1.463.493a17.708,17.708,0,0,0,10.638-.1,17.866,17.866,0,0,0,10.041-7.737,2.87,2.87,0,0,0,.234-.474A2.556,2.556,0,0,0,32.865,24.7c-.854-.323-2.127-.342-3.341,1.4a13.307,13.307,0,1,1-8.761-20.65,12.8,12.8,0,0,1,9.511,6.843L27.388,11.2a2.641,2.641,0,0,0-3.51,1.466,2.565,2.565,0,0,0,.047,1.98,2.8,2.8,0,0,0,1.6,1.456L33.3,19.035a2.622,2.622,0,0,0,3.562-1.622l2.918-7.742a3.676,3.676,0,0,0,.188-.666A2.732,2.732,0,0,0,38.9,6.425" transform="translate(0 0)"/>
      <path d="M12.822,5.828A2.181,2.181,0,0,0,10.64,8.01v10.8l9.215,3.5a2.182,2.182,0,1,0,1.548-4.08L15,15.8V8.01a2.181,2.181,0,0,0-2.182-2.182" transform="translate(4.837 2.65)"/>
    </g>
  </g>
</svg>
