<svg xmlns="http://www.w3.org/2000/svg" viewBox="0 0 83.827 59.814">
  <path d="M529.351,179.053h-2.36V147.9a4.866,4.866,0,0,0-4.863-4.866h-1.049a6.137,6.137,0,0,0-5.029,2.615l-22.992,32.805a9.955,9.955,0,0,0-1.8,5.717v.109a5.271,5.271,0,0,0,5.256,5.286h.016c7.538-.012,20.5-.012,20.5-.012v7.81a5.093,5.093,0,0,0,5.093,5.093,4.866,4.866,0,0,0,4.866-4.865v-8.037h2.36a5.25,5.25,0,0,0,0-10.5Zm-12.149,0h-12.26l12.26-17.772Z" transform="translate(-450.77 -142.655)" fill="#004b96"/>
  <path d="M446.378,185.795c0-10.91-7.048-14.825-14.266-17.9l-.522-.223c-6.457-2.757-10.017-4.275-10.017-8.837,0-3.6,3.174-6.419,7.225-6.419a10.58,10.58,0,0,1,6.329,2.378,25.146,25.146,0,0,1,2.726,2.748,6.1,6.1,0,0,0,3.647,2.22,4.113,4.113,0,0,0,3.3-.952l.2-.194c1.814-1.748,1.7-4.59.449-6.779a19.481,19.481,0,0,0-16.361-9.551c-.059,0-.116,0-.175,0-.039,0-.076,0-.116,0-.542,0-1.071.027-1.59.071-11.019.792-15.982,8.544-15.982,16.234,0,10.91,7.048,14.826,14.266,17.9l.522.223c6.457,2.757,10.017,4.275,10.017,8.837,0,3.3-2.676,5.942-6.246,6.356-.354.034-.708.051-1.058.058a10.212,10.212,0,0,1-5.555-1.872,20.888,20.888,0,0,1-3.422-3.246,6.1,6.1,0,0,0-3.648-2.22,4.111,4.111,0,0,0-3.3.952l-.2.194c-1.815,1.747-1.611,4.327-.444,6.56a18.883,18.883,0,0,0,16.357,9.767c.059,0,.116,0,.175,0,.039,0,.076,0,.116,0,.543,0,1.071-.027,1.591-.071C441.416,201.234,446.378,193.485,446.378,185.795Z" transform="translate(-411.228 -142.286)" fill="#004b96"/>
</svg>
