<svg xmlns="http://www.w3.org/2000/svg" viewBox="0 0 60 60">
  <g id="logo_symbol" transform="translate(0 0)">
    <circle cx="7.959" cy="7.959" r="7.959" fill="#004b96"/>
    <g transform="translate(1.386 1.386)">
      <path d="M324.212,153.949v-4.42a5.079,5.079,0,0,0-5.577-5.042,58.749,58.749,0,0,0-52.892,52.892,5.079,5.079,0,0,0,5.041,5.578h4.447v-.027A48.982,48.982,0,0,1,324.212,153.949Z" transform="translate(-265.72 -144.464)" fill="#82d5f6"/>
      <path d="M294.895,212.36a38.772,38.772,0,0,1,38.773-38.773V163.378a48.982,48.982,0,0,0-48.982,48.982v.027H294.9C294.9,212.377,294.895,212.368,294.895,212.36Z" transform="translate(-275.175 -153.893)" fill="#009de0"/>
      <path d="M305.045,222.535h33.731a5.041,5.041,0,0,0,5.041-5.042V183.736A38.772,38.772,0,0,0,305.045,222.535Z" transform="translate(-285.325 -164.042)" fill="#004b96"/>
    </g>
    <rect width="60" height="60" transform="translate(0 0)" fill="none"/>
  </g>
</svg>
