<svg xmlns="http://www.w3.org/2000/svg" viewBox="0 0 40 40">
  <g id="icon" transform="translate(-32 -137)">
    <rect width="40" height="40" transform="translate(32 137)" fill="none"/>
    <path d="M180.376,86.88l-8.342-8.342a2.134,2.134,0,0,1,0-3.014l.021-.021a5.326,5.326,0,0,1,7.532,0l3.824,3.824a5.326,5.326,0,0,1,0,7.532l-.021.021A2.13,2.13,0,0,1,180.376,86.88Zm-16.789,19.8,14.1-14.1a2.133,2.133,0,0,0,0-3.014l-8.342-8.34a2.13,2.13,0,0,0-3.014,0l-14.1,14.1a2.133,2.133,0,0,0,0,3.014l8.342,8.342A2.13,2.13,0,0,0,163.588,106.683Zm-16.641,7.234,10.126-1.778a1.683,1.683,0,0,0,.9-2.847l-8.348-8.348a1.682,1.682,0,0,0-2.847.9L145,111.968A1.683,1.683,0,0,0,146.947,113.917Z" transform="translate(-112.971 63.056)"/>
  </g>
</svg>
