<svg xmlns="http://www.w3.org/2000/svg" viewBox="0 0 40 40">
  <g id="icon" transform="translate(72 177) rotate(180)">
    <rect width="40" height="40" transform="translate(32 137)" fill="none"/>
    <path d="M537.268,62.343c-.9,0-2.094.427-2.612,2.463A13.2,13.2,0,1,1,519.3,48.7a12.693,12.693,0,0,1,11.221,3.025h-3.056a2.622,2.622,0,0,0-2.747,2.589,2.549,2.549,0,0,0,.737,1.822,2.786,2.786,0,0,0,1.994.793h8.244a2.6,2.6,0,0,0,2.739-2.751V45.972a3.648,3.648,0,0,0-.058-.685,2.71,2.71,0,0,0-1.894-2.021l-1.029-.05-.272.05a2.682,2.682,0,0,0-1.95,2.722c.006.245,0,.492,0,.737l0,.44a18.294,18.294,0,0,0-9.758-3.868l-.079-.081-2.731.01c-.307.05-.616.087-.93.127-.531.064-1.064.131-1.587.247a18.228,18.228,0,0,0-12.522,9.354,17.907,17.907,0,0,0-2.133,7.235l-.048,2.5.073.475a18.4,18.4,0,0,0,18.267,16.848q.756,0,1.531-.054A18.206,18.206,0,0,0,539.76,65.445a2.639,2.639,0,0,0,.052-.523A2.534,2.534,0,0,0,537.268,62.343Z" transform="translate(574.013 218.811) rotate(180)"/>
  </g>
</svg>
