<svg xmlns="http://www.w3.org/2000/svg" viewBox="0 0 40 40">
  <g id="icon" transform="translate(-32 -137)">
    <path d="M110.8,85.326l-1.6-.2a2.571,2.571,0,0,1-1.969-1.364,13.2,13.2,0,0,0-.682-1.171,2.578,2.578,0,0,1-.209-2.408l.6-1.437a2.611,2.611,0,0,0-1.1-3.274l-3.343-1.93a2.611,2.611,0,0,0-3.386.682l-.975,1.286a2.584,2.584,0,0,1-2.194,1.021q-.3-.018-.6-.018c-.242,0-.482.009-.721.024a2.559,2.559,0,0,1-2.2-1.021l-.942-1.241a2.613,2.613,0,0,0-3.388-.682l-3.343,1.93a2.613,2.613,0,0,0-1.1,3.274l.628,1.493a2.576,2.576,0,0,1-.2,2.389A13.34,13.34,0,0,0,83.4,83.85a2.578,2.578,0,0,1-1.979,1.384l-1.55.2a2.612,2.612,0,0,0-2.285,2.592v3.861a2.611,2.611,0,0,0,2.285,2.59l1.6.2a2.571,2.571,0,0,1,1.969,1.364q.312.6.682,1.171a2.575,2.575,0,0,1,.209,2.406l-.6,1.437a2.613,2.613,0,0,0,1.1,3.276l3.343,1.93a2.612,2.612,0,0,0,3.386-.684l.975-1.285a2.573,2.573,0,0,1,2.193-1.021c.2.01.4.016.6.016.242,0,.482-.007.719-.024a2.564,2.564,0,0,1,2.2,1.021l.942,1.241a2.613,2.613,0,0,0,3.388.684l3.343-1.93a2.615,2.615,0,0,0,1.1-3.276L106.4,99.51a2.577,2.577,0,0,1,.2-2.389,13.129,13.129,0,0,0,.672-1.173,2.573,2.573,0,0,1,1.979-1.382l1.55-.2a2.613,2.613,0,0,0,2.285-2.592V87.918A2.613,2.613,0,0,0,110.8,85.326ZM95.336,94.116A4.216,4.216,0,1,1,99.552,89.9,4.216,4.216,0,0,1,95.336,94.116Z" transform="translate(-43.336 67.1)" />
    <rect width="40" height="40" transform="translate(32 137)" fill="none"/>
  </g>
</svg>
