<svg xmlns="http://www.w3.org/2000/svg" viewBox="0 0 40 40">
  <g id="icon" transform="translate(283 -90)">
    <rect width="40" height="40" transform="translate(-283 90)" fill="none"/>
    <g transform="translate(-530.671 11.621)">
      <path d="M284.141,86.727h-14.7a8.117,8.117,0,0,0-14.672,0H251.2a3.53,3.53,0,1,0,0,7.059h3.57a8.118,8.118,0,0,0,14.672,0h14.7a3.53,3.53,0,0,0,0-7.059Zm-19.158,3.53a2.877,2.877,0,1,1-2.877-2.878A2.879,2.879,0,0,1,264.983,90.257Z" transform="translate(0)" />
      <path d="M251.2,102.991h14.7a8.118,8.118,0,0,0,14.672,0h3.57a3.53,3.53,0,0,0,0-7.059h-3.57a8.118,8.118,0,0,0-14.672,0H251.2a3.53,3.53,0,1,0,0,7.059Zm19.158-3.53a2.877,2.877,0,1,1,2.877,2.877A2.879,2.879,0,0,1,270.359,99.462Z" transform="translate(0 7.041)" />
    </g>
  </g>
</svg>
