<svg xmlns="http://www.w3.org/2000/svg" viewBox="0 0 40 40">
  <g id="icon" transform="translate(-32 -137)">
    <rect width="40" height="40" transform="translate(32 137)" fill="none"/>
    <g transform="translate(32 137)">
      <path d="M217.676,317.815a13.056,13.056,0,0,1,.705-1.7,3.763,3.763,0,0,0-.746-4.325l0,0a3.823,3.823,0,0,0-6.122.977,20.976,20.976,0,0,0-1.04,2.5,3.83,3.83,0,0,0,3.627,5.056h0A3.749,3.749,0,0,0,217.676,317.815Z" transform="translate(-210.264 -302.017)" fill="#ffa5a5"/>
      <path d="M220.807,313.689a13.336,13.336,0,0,1,1.7-.7,3.747,3.747,0,0,0,2.5-3.576v0a3.83,3.83,0,0,0-5.054-3.627,21,21,0,0,0-2.5,1.04,3.824,3.824,0,0,0-.975,6.122l0,0A3.766,3.766,0,0,0,220.807,313.689Z" transform="translate(-206.707 -305.574)" fill="#ffa5a5"/>
      <path d="M218.381,322.548a12.86,12.86,0,0,1-.705-1.7,3.75,3.75,0,0,0-3.578-2.5h0a3.828,3.828,0,0,0-3.627,5.054,21.118,21.118,0,0,0,1.04,2.5,3.823,3.823,0,0,0,6.122.975l0,0A3.765,3.765,0,0,0,218.381,322.548Z" transform="translate(-210.264 -296.648)" fill="#ffa5a5"/>
      <path d="M223.037,309.407h0a3.749,3.749,0,0,0,2.5,3.578,13.288,13.288,0,0,1,1.7.7,3.763,3.763,0,0,0,4.325-.746l0,0a3.823,3.823,0,0,0-.977-6.122,21,21,0,0,0-2.5-1.04A3.83,3.83,0,0,0,223.037,309.407Z" transform="translate(-201.339 -305.574)" fill="#ffa5a5"/>
      <path d="M229.19,316.116a13.088,13.088,0,0,1,.7,1.7,3.749,3.749,0,0,0,3.578,2.5h0a3.83,3.83,0,0,0,3.629-5.054,20.614,20.614,0,0,0-1.041-2.5,3.821,3.821,0,0,0-6.121-.977l0,0A3.76,3.76,0,0,0,229.19,316.116Z" transform="translate(-197.306 -302.017)" fill="#ffa5a5"/>
      <path d="M229.894,320.849a13.21,13.21,0,0,1-.7,1.7,3.76,3.76,0,0,0,.744,4.325l0,0a3.821,3.821,0,0,0,6.121-.977,20.841,20.841,0,0,0,1.041-2.5,3.829,3.829,0,0,0-3.629-5.054h0A3.75,3.75,0,0,0,229.894,320.849Z" transform="translate(-197.306 -296.648)" fill="#ffa5a5"/>
      <path d="M227.24,324.5a13.27,13.27,0,0,1-1.7.7,3.749,3.749,0,0,0-2.5,3.578h0a3.829,3.829,0,0,0,5.054,3.627,20.44,20.44,0,0,0,2.5-1.04,3.822,3.822,0,0,0,.977-6.121l0,0A3.76,3.76,0,0,0,227.24,324.5Z" transform="translate(-201.339 -292.615)" fill="#ffa5a5"/>
      <path d="M222.506,325.2a13.072,13.072,0,0,1-1.7-.7,3.763,3.763,0,0,0-4.327.744l0,0a3.822,3.822,0,0,0,.975,6.121,20.711,20.711,0,0,0,2.5,1.04,3.829,3.829,0,0,0,5.054-3.627h0A3.75,3.75,0,0,0,222.506,325.2Z" transform="translate(-206.707 -292.615)" fill="#ffa5a5"/>
    </g>
  </g>
</svg>
