<svg xmlns="http://www.w3.org/2000/svg" viewBox="0 0 40 40">
  <g id="icon" transform="translate(-32 -137)">
    <rect width="40" height="40" transform="translate(32 137)" fill="none"/>
    <g transform="translate(32 137)">
      <path d="M246.672,318.347h0a3.741,3.741,0,0,0-3.545,4.939,20.218,20.218,0,0,0,1.016,2.442,3.736,3.736,0,0,0,5.984.955l0,0a3.679,3.679,0,0,0,.729-4.228,12.574,12.574,0,0,1-.689-1.66A3.665,3.665,0,0,0,246.672,318.347Z" transform="translate(-242.925 -297.138)" fill="#d4d7dd"/>
      <path d="M249.114,312.774l0,0a3.678,3.678,0,0,0,4.229.729,12.861,12.861,0,0,1,1.659-.687,3.665,3.665,0,0,0,2.447-3.5h0a3.744,3.744,0,0,0-4.941-3.546,20.476,20.476,0,0,0-2.441,1.016A3.736,3.736,0,0,0,249.114,312.774Z" transform="translate(-239.564 -305.569)" fill="#d4d7dd"/>
      <path d="M250.169,317.652a12.762,12.762,0,0,1,.689-1.66,3.677,3.677,0,0,0-.729-4.227l0,0a3.737,3.737,0,0,0-5.984.955,20.218,20.218,0,0,0-1.016,2.442,3.742,3.742,0,0,0,3.545,4.94h0A3.664,3.664,0,0,0,250.169,317.652Z" transform="translate(-242.925 -302.209)" fill="#d4d7dd"/>
      <path d="M260.771,309.32h0a3.671,3.671,0,0,0,2.456,3.5,12.971,12.971,0,1,1-9.925,23.893,3.549,3.549,0,0,0-4.109.671l-.068.068a3.74,3.74,0,0,0,.928,5.991,20.3,20.3,0,0,0,10.181,2.1,20.442,20.442,0,0,0,5.451-39.772A3.736,3.736,0,0,0,260.771,309.32Z" transform="translate(-239.564 -305.571)" fill="#05abef"/>
    </g>
  </g>
</svg>
