<svg xmlns="http://www.w3.org/2000/svg" viewBox="0 0 40 40">
  <g id="icon" transform="translate(-32 -137)">
    <path d="M209.465,59.823a2.016,2.016,0,0,1,0-2.316l2.265-3.239a2.022,2.022,0,0,0-1-3.069L207,49.909a2.018,2.018,0,0,1-1.361-1.873l-.071-3.952a2.022,2.022,0,0,0-2.612-1.9l-3.781,1.153a2.02,2.02,0,0,1-2.2-.716l-2.38-3.155a2.02,2.02,0,0,0-3.226,0l-2.381,3.155a2.02,2.02,0,0,1-2.2.716L183,42.187a2.02,2.02,0,0,0-2.61,1.9l-.071,3.952a2.02,2.02,0,0,1-1.361,1.873l-3.736,1.29a2.021,2.021,0,0,0-1,3.069l2.265,3.239a2.022,2.022,0,0,1,0,2.316l-2.265,3.239a2.021,2.021,0,0,0,1,3.069l3.736,1.29a2.02,2.02,0,0,1,1.361,1.873l.071,3.952a2.02,2.02,0,0,0,2.61,1.9l3.781-1.153a2.02,2.02,0,0,1,2.2.716l2.381,3.155a2.02,2.02,0,0,0,3.226,0l2.38-3.155a2.02,2.02,0,0,1,2.2-.716l3.781,1.153a2.022,2.022,0,0,0,2.612-1.9l.071-3.952A2.018,2.018,0,0,1,207,67.421l3.736-1.29a2.021,2.021,0,0,0,1-3.069ZM186.22,64.835a17.087,17.087,0,0,1-3.047-1.468.954.954,0,0,1,.5-1.765h2.548Zm.289-8.739a3.28,3.28,0,0,1-2.419-2.863.842.842,0,0,1,1.053-.894l4.422,1.182a.839.839,0,0,1,.467,1.3A3.277,3.277,0,0,1,186.509,56.1Zm5.272,9.887a19.777,19.777,0,0,1-3.177-.448V61.6h3.177Zm5.563-.448a19.776,19.776,0,0,1-3.177.448V61.6h3.177Zm-1.428-10.716a.841.841,0,0,1,.467-1.3l4.424-1.182a.841.841,0,0,1,1.052.894,3.278,3.278,0,0,1-5.943,1.585Zm6.861,8.548a17.141,17.141,0,0,1-3.047,1.468V61.6h2.548A.954.954,0,0,1,202.778,63.367Z" transform="translate(-140.975 98.335)" />
    <rect width="40" height="40" transform="translate(32 137)" fill="none"/>
  </g>
</svg>
