<svg xmlns="http://www.w3.org/2000/svg" viewBox="0 0 40 40">
  <g id="icon" transform="translate(-32 -137)">
    <rect width="40" height="40" transform="translate(32 137)" fill="none"/>
    <path d="M114.22,84.719h-9.4a.61.61,0,0,1-.641-.575h0a4.28,4.28,0,0,0-4.491-4.031h-.506a4.278,4.278,0,0,0-4.489,4.031h0a.61.61,0,0,1-.641.575H84.473a3.666,3.666,0,0,0-3.848,3.454v.38a1.834,1.834,0,0,0,1.923,1.728h33.6a1.835,1.835,0,0,0,1.925-1.728v-.38A3.666,3.666,0,0,0,114.22,84.719ZM84.96,92.837a2.307,2.307,0,0,0-2.435,2.292l1.034,19.494c.164,3.073,2.988,5.49,6.416,5.49h18.743c3.428,0,6.252-2.417,6.416-5.49l1.034-19.494a2.308,2.308,0,0,0-2.435-2.292ZM104.4,99.366a1.74,1.74,0,0,1,3.461,0v14.219a1.74,1.74,0,0,1-3.461,0Zm-6.78,0a1.74,1.74,0,0,1,3.461,0v14.219a1.74,1.74,0,0,1-3.461,0Zm-6.78,0a1.741,1.741,0,0,1,3.463,0v14.219a1.742,1.742,0,0,1-3.463,0Z" transform="translate(-47.346 56.887)"/>
  </g>
</svg>
