<svg xmlns="http://www.w3.org/2000/svg" viewBox="0 0 40 40">
  <g id="icon" transform="translate(283 -90)">
    <rect width="40" height="40" transform="translate(-283 90)" fill="none"/>
    <g transform="translate(-562.801 9.228)">
      <path d="M308.234,93.273a2,2,0,0,0-1.92.181A13.026,13.026,0,0,1,293,93.56a2.014,2.014,0,0,0-1.944-.148,15.5,15.5,0,0,0-8.489,14.081,5.119,5.119,0,0,0,5.176,4.926h24.111a5.125,5.125,0,0,0,5.176-4.945A15.489,15.489,0,0,0,308.234,93.273Z" transform="translate(0 8.353)"/>
      <path d="M296.733,100.7a9.64,9.64,0,0,0,7.04-2.917,9.952,9.952,0,0,0,2.922-7.051,9.645,9.645,0,0,0-2.917-7.038,9.944,9.944,0,0,0-7.046-2.922,9.639,9.639,0,0,0-7.043,2.917,9.947,9.947,0,0,0-2.923,7.051,9.646,9.646,0,0,0,2.917,7.038A9.951,9.951,0,0,0,296.733,100.7Z" transform="translate(2.843)"/>
    </g>
  </g>
</svg>
